<svg xmlns="http://www.w3.org/2000/svg" xmlns:xlink="http://www.w3.org/1999/xlink" width="480" height="234" viewBox="0 0 480 234">
    <defs>
        <linearGradient id="a" x1="50%" x2="50%" y1="0%" y2="100%">
            <stop offset="0%" stop-color="#C0E5FF"/>
            <stop offset="100%" stop-color="#5098E0"/>
        </linearGradient>
        <linearGradient id="b" x1="47.984%" x2="52.23%" y1="100%" y2="23.786%">
            <stop offset="0%" stop-color="#001B8A"/>
            <stop offset="65.313%" stop-color="#003CC1"/>
            <stop offset="100%" stop-color="#2A90FF"/>
        </linearGradient>
        <path id="c" d="M0 .003h48.376V92.85H0z"/>
        <linearGradient id="e" x1="50%" x2="50%" y1="0%" y2="100%">
            <stop offset="0%" stop-color="#F5515F"/>
            <stop offset="100%" stop-color="#9F041B"/>
        </linearGradient>
        <path id="f" d="M0 .217h49.695V7H0z"/>
    </defs>
    <g fill="none" fill-rule="evenodd">
        <path fill="#D8EBFF" d="M25.617 178.939c-.122-5.146.163-22.208 16.308-38.828 15.052-15.496 38.426-17.545 47.172-12.975-6.672-9.284-4.376-31.95 7.579-47.283 19.257-24.7 45.704-20.524 52.373-19.665.27-2.71 1.433-9.83 6.387-17.672 5.678-8.994 17.642-20.619 42.382-24.933 27.605-4.813 45.757 2.26 56.125 9.039 9.154 5.984 13.946 12.66 15.53 15.156 5.224-3.648 31.32-19.972 59.78-4.343 12.817 7.04 19.827 16.571 23.626 25.448 10.443-3.002 18.615.482 21.99 2.367 0 0 26.934-10.513 42.894 12.023 15.962 22.535 2.914 41.178 2.914 41.178s22.184.587 41.1 22.46c27.68 32.011 15.598 64.581 15.598 64.581H1.028A1.025 1.025 0 0 1 0 204.47c0-19.643 20.905-24.653 25.617-25.531"/>
        <path fill="url(#a)" d="M60.714 163.912c15.757-7.667 29.75 4.322 29.75 4.322s.832-10.956 12.48-13.97c11.647-3.014 17.252 6.272 17.252 6.272s-6.167-29.964 19.604-45.892c27.846-17.21 54.47 7.47 54.47 7.47s27.837-26.431 66.745-13.965c10.62 3.403 18.594 8.806 24.557 14.695 38.649-14.277 61.779-6.022 70.633-1.251 7.077-6.293 18.151-11.114 35.114-8.12 41.665 7.351 36.866 41.098 36.866 41.098s14.88-6.708 26.544 4.882 4.733 30.878 4.733 30.878H46.261s-1.302-18.752 14.453-26.419" transform="translate(0 16)"/>
        <path fill="#2662CF" d="M36.405 205.83c.657.94 2.973 2.446 10.523 4.04 14.607 3.085 50.112.76 53.584 6.456 3.79 6.218-24.193 4.465-23.872 11.726.272 6.172 19.304 5.947 40.757 5.947h240.479c17.374 0 14.23-5.38 11.77-7.83-3.572-3.557-2.001-6.84 13.632-7.293 15.175-.44 26.29-.818 34.571-.818 22.088 0 17.753-7.444 34.962-7.444 9.525 0 20.7-2.1 23.72-4.784H36.405z"/>
        <path fill="url(#b)" d="M16.263 208.008l.275-.093s6.381-.256 9.849 2.295c3.47 2.553 2.718 7.79 2.718 7.79h-16.63s-1.453-2.604-1.408-6.14l-.244.084c-5.89-21.696-6.799-47.435-6.799-47.435l14.084 5.339c-3.125 19.43-2.316 33.254-1.845 38.16z" transform="translate(156 1)"/>
        <path fill="#2662CF" d="M177.089 214.963a.799.799 0 0 0 .117-.009c.443-.06.75-.446.687-.863a11.935 11.935 0 0 1 .239-4.908 22.22 22.22 0 0 0-1.603-.276 13.375 13.375 0 0 0-.243 5.404c.06.38.406.652.803.652M174.017 214.963a.76.76 0 0 0 .112-.008c.419-.059.71-.43.648-.832-.35-2.287.03-4.117.337-5.115a27.107 27.107 0 0 0-1.565-.1c-.33 1.191-.646 3.091-.29 5.427a.76.76 0 0 0 .758.628"/>
        <path fill="#2053AF" d="M239.423 13.066a38.19 38.19 0 0 0-6.7-6.74c.537-1.951-.46-4.037-2.366-4.797-2.036-.814-4.34.196-5.144 2.256-.805 2.058.195 4.387 2.232 5.2a3.927 3.927 0 0 0 4.023-.674 36.033 36.033 0 0 1 6.183 6.26c5.41 7.056 7.378 15.118 5.852 23.96l2.278.404c2.054-11.899-2.323-20.635-6.358-25.869"/>
        <path fill="url(#b)" d="M67.719 207.91c1.87.033 6.289.329 8.968 2.3 3.468 2.553 2.718 7.79 2.718 7.79H62.774s-2.075-3.721-1.188-8.307l.018-.006c-8.301-18.5-10.299-45.178-10.299-45.178l15.392 5.896c-2.399 21.663-.199 33.17 1.022 37.506z" transform="translate(156 1)"/>
        <path fill="#2662CF" d="M229.399 214.963c.038 0 .08-.003.119-.009.442-.06.75-.446.685-.863a11.935 11.935 0 0 1 .24-4.908 22.35 22.35 0 0 0-1.602-.276c-.324 1.246-.597 3.128-.244 5.404.062.38.407.652.802.652M225.322 214.963a.741.741 0 0 0 .111-.008c.42-.059.709-.43.65-.832-.35-2.287.03-4.117.336-5.115a27.188 27.188 0 0 0-1.565-.1c-.33 1.191-.646 3.091-.29 5.427a.758.758 0 0 0 .758.628"/>
        <path fill="#2053AF" d="M245.08 112.95s17.402 15.494 43.975 12.591c26.57-2.9 30.286-21.71 26.55-36.67-3.738-14.958-10.227-17.252-10.227-17.252l4.683-6.026s23.288 17.86 9.661 50.65c-11.6 27.92-59.294 24.343-77.207 10.418l2.565-13.712z"/>
        <path fill="#24282D" d="M209.678 83.76l-5.39 8.422 42.986 22.864 4.295-7.482z"/>
        <path fill="url(#b)" d="M50.26 83.253c-12.114-6.772-22.557-18.726 7.869-38.617 30.427-19.893 53.805-7.846 73.38 9.34 19.571 17.183 10.131 40.871-.86 49.603-10.988 8.73-19.272 13.79-36.22 4.491-16.95-9.298-44.168-24.817-44.168-24.817" transform="translate(156 1)"/>
        <path fill="#2173CC" d="M226.888 51.114c13.813-9.16 26.317-12.299 37.759-11.49-14.521-6.404-31.067-6.687-50.474 6.18-30.495 20.22-20.027 32.372-7.884 39.255l1.246.719c-5.656-7.963-4.007-19.175 19.353-34.664"/>
        <path fill="#D8EBFF" d="M232.078 54.765c-11.586 11.06-18.4 25.314 13.227 44.438 26.73 16.163 39.469 3.395 43.597-4.95 4.13-8.344 6.2-21.344-10.41-36.564-16.61-15.22-32.29-16.408-46.414-2.924"/>
        <path fill="#2A90FF" d="M257.508 156.426l-25.347 33.678a3.53 3.53 0 0 0 1.078 5.193c1.598.922 3.644.509 4.745-.954l25.657-34.112-6.133-3.805zM296.15 141.613c-8.137 12.287-22.917 16.822-30.54 12.653-7.627-4.168-10.608-17.95.482-34.28 11.227-16.526 27.405-16.584 33.552-11.155 6.147 5.43 4.641 20.496-3.495 32.782m7.026-39.366c-9.582-8.922-31.656-7.93-46.325 12.259-13.754 18.927-9.092 36.17 4.337 43.964 11.833 6.868 28.55 1.788 38.717-13.568 10.17-15.356 12.37-34.185 3.271-42.655"/>
        <path fill="url(#b)" d="M45.32 4.767c11.534 5.982 36.036 22.048 42.882 25.484 6.849 3.438 5.366 8.855 2.635 14.713-2.73 5.858-13.184 21.716-17.328 38.295-4.146 16.58-16.062 12.228-29.295 11.33-13.232-.898-22.267-1.608-28.256-2.074C8.792 91.96 1.164 92.072.12 71.627-.923 51.183 4.94 25.634 13.375 11.973 21.81-1.688 30.299-3.025 45.32 4.767" transform="translate(156 81.74)"/>
        <path fill="#7FBCFF" d="M199.629 123.51c-1.908-1.101-2.562-3.574-1.453-5.494l7.75-13.424c1.109-1.92 3.577-2.59 5.485-1.489 1.907 1.101 2.561 3.574 1.452 5.494l-7.75 13.424c-1.109 1.92-3.577 2.59-5.484 1.49"/>
        <path fill="#FFF" d="M211.382 124.621l-.405-1.53a3.68 3.68 0 0 1 2.59-4.487l.808-.22a2.67 2.67 0 0 0 1.88-3.254 4.12 4.12 0 0 0-5.07-2.927l-.54.147-5.57 9.648a4.02 4.02 0 0 1-1.058 1.199l.45 1.697a4.119 4.119 0 0 0 5.068 2.926 2.625 2.625 0 0 0 1.847-3.199"/>
        <path fill="#BBDBFF" d="M205.134 121.95l5.621-9.737-4.784 1.394c-2.178.635-3.507 2.932-2.976 5.136l-1.776.518 2.215 1.278 1.057 4.316-.414-1.69a4.18 4.18 0 0 0 1.057-1.215"/>
        <g transform="translate(156 81.74)">
            <mask id="d" fill="#fff">
                <use xlink:href="#c"/>
            </mask>
            <path fill="#2173CC" d="M15.023 77.671c-1.05-20.477 4.86-46.066 13.365-59.751C34.295 8.418 40.23 4.873 48.376 6.204a128.41 128.41 0 0 0-2.68-1.428c-15.145-7.805-23.703-6.468-32.21 7.217C4.98 25.677-.93 51.267.12 71.745c1.053 20.477 8.744 20.363 15.97 20.921l2.37.183c-1.793-3.024-3.056-7.738-3.438-15.178" mask="url(#d)"/>
        </g>
        <path fill="#2662CF" d="M186.324 91.906c3.216.522 5.317 3.671 4.607 6.882-2.247 10.149-4.39 31.334 11.524 46.504 19.75 18.823 37.042 16.913 37.042 16.913l-2.215 7.341s-30.954-1.671-50.022-26.37c-14.39-18.638-10.123-38.754-7.162-47.503a5.627 5.627 0 0 1 6.226-3.767"/>
        <path fill="#2662CF" d="M255.057 159.424l-4.377 5.678s9.183 1.64 7.786 5.217c-1.133 2.902-5.117 2.017-5.117 2.017s2.944 2.003.843 4.9c-1.165 1.607-4.989.515-4.989.515s.923 1.436-.34 2.994c-1.26 1.555-7.952 1.163-12.293-1.483-4.34-2.645-3.616-7.122-.996-11.75 2.619-4.625 6.924-11.668 19.483-8.088"/>
        <path fill="#2053AF" d="M287.784 56.513l3.613-12.4 10.084-2.743 11.613 12.064s3.973 13.993-5.3 20.232c0 0-10.128.28-15.025-8.036 0-2.409 2.377-4.036 4.516-3.089l5.589 2.475 2.094-7.633-6.3-8.375-2.644.393s-1.885 8.623-8.24 7.112"/>
        <path fill="#32495B" d="M251.672 77.845a3.012 3.012 0 0 1-4.269-.039 3.035 3.035 0 0 1 .039-4.28 3.01 3.01 0 0 1 4.268.038 3.035 3.035 0 0 1-.038 4.281M271.792 92.984a3.01 3.01 0 0 1-4.268-.039 3.034 3.034 0 0 1 .038-4.281 3.01 3.01 0 0 1 4.267.039 3.034 3.034 0 0 1-.037 4.281"/>
        <path fill="#24282D" d="M229.626 125.961c-1.034-.463-1.484-1.652-1-2.644l7.92-16.21c.485-.99 1.729-1.421 2.763-.958 1.032.464 1.483 1.655 1 2.645l-7.922 16.21c-.484.991-1.728 1.421-2.76.957"/>
        <g>
            <path fill="url(#e)" fill-rule="nonzero" d="M39.134 0C17.52 0 0 17.131 0 38.264c0 13.534 4.531 24.55 15.365 31.377 1.805 4.862.917 10.29-2.348 14.359 0 0 11.493-2.316 14.068-9.284a39.952 39.952 0 0 0 12.049 1.812l-.37.101C60.37 76.574 77.886 59.491 78 38.365 77.943 17.184 60.384.033 38.722 0h.412z" transform="translate(321)"/>
            <path fill="#FFF" d="M337.104 42.687c-.727 0-1.104-.382-1.104-1.118v-.272c0-.545.108-.954.404-1.39l7.38-10.844c.324-.518.728-.736 1.347-.736h2.101c.755 0 1.132.409 1.132 1.144v10.3h1.346c.728 0 1.132.382 1.132 1.117v.681c0 .736-.323 1.118-.916 1.118h-1.562v3.842c0 .763-.377 1.144-1.132 1.144h-1.185c-.727 0-1.104-.381-1.104-1.144v-3.842h-7.839zm2.56-2.916h5.279v-5.994c0-.954.134-2.017.134-2.017h-.053s-.431 1.036-.943 1.771l-4.418 6.186v.054zM360.214 48c-5.225 0-6.922-4.469-6.922-10.027 0-5.559 1.697-9.973 6.922-9.973 5.226 0 6.95 4.414 6.95 9.973 0 5.558-1.724 10.027-6.95 10.027zm0-3.215c2.613 0 3.367-2.998 3.367-6.812 0-3.76-.754-6.73-3.367-6.73-2.612 0-3.367 2.97-3.367 6.73 0 3.814.755 6.812 3.367 6.812zm10.048-2.098c-.728 0-1.105-.382-1.105-1.118v-.272c0-.545.108-.954.404-1.39l7.38-10.844c.324-.518.728-.736 1.348-.736h2.1c.755 0 1.132.409 1.132 1.144v10.3h1.347c.727 0 1.131.382 1.131 1.117v.681c0 .736-.323 1.118-.916 1.118h-1.562v3.842c0 .763-.377 1.144-1.131 1.144h-1.186c-.727 0-1.104-.381-1.104-1.144v-3.842h-7.838zm2.559-2.916h5.279v-5.994c0-.954.135-2.017.135-2.017h-.054s-.431 1.036-.943 1.771l-4.417 6.186v.054z"/>
        </g>
        <g>
            <g transform="translate(283 215)">
                <mask id="g" fill="#fff">
                    <use xlink:href="#f"/>
                </mask>
                <path fill="#19428C" d="M49.694 1.963c.123 1.638-10.9 3.702-24.623 4.61C11.348 7.484.124 6.892 0 5.254c-.123-1.637 10.901-3.7 24.624-4.61 13.722-.908 24.946-.317 25.07 1.32" mask="url(#g)"/>
            </g>
            <path fill="#99180B" d="M316.806 217h-1.591s-3.582-6.375-3.184-15l5.969.75s-2.785 7.125-1.194 14.25M308 202.096s-3.195 6.22-3.195 13.904h-1.598s-4.483-16.14 3.83-26l.963 12.096zM322 202.096s3.195 6.22 3.195 13.904h1.598s4.483-16.14-3.83-26L322 202.096z"/>
            <path fill="#EF2F1B" d="M308 197.522l-.638-7.522c-8.85 9.86-4.077 26-4.077 26h.597c-.5-5.2-.206-12.673 4.118-18.478"/>
            <path fill="url(#e)" d="M32.077 0c3.716 0 12.387 18.831 7.432 52.873 0 0-7.432 2.535-14.864 0 0 0-2.63-14.037-1.239-27.523C24.741 12.41 28.65 0 32.076 0" transform="translate(283 149)"/>
            <path fill="#EF2F1B" d="M313.435 201.874s-1.788-14.037-.842-27.524c.717-10.23 2.528-20.122 4.407-23.82-.784-1.012-1.517-1.53-2.119-1.53-3.354 0-7.178 12.41-8.484 25.35-1.36 13.487 1.212 27.524 1.212 27.524 3.295 1.149 6.588 1.255 9.206 1.03a10.541 10.541 0 0 1-3.38-1.03"/>
            <path fill="#F6F7F8" d="M318 170a3 3 0 1 1-6 0 3 3 0 0 1 6 0M318 193a3 3 0 1 1-6 0 3 3 0 0 1 6 0M318 182a3 3 0 1 1-6 0 3 3 0 0 1 6 0"/>
        </g>
    </g>
</svg>
